<svg xmlns="http://www.w3.org/2000/svg" xmlns:xlink="http://www.w3.org/1999/xlink" width="0.222in"
                    height="0.222in">
                    <path fill-rule="evenodd" fill="rgb(255, 255, 255)" d="M13.336,15.744 C12.124,15.946 10.699,15.999 8.000,15.999 C5.301,15.999 3.876,15.946 2.664,15.744 C0.967,15.461 -0.000,14.856 -0.000,13.839 C-0.000,12.497 1.728,10.624 4.130,9.540 C5.101,11.012 6.472,12.000 8.000,12.000 C9.527,12.000 10.899,11.012 11.870,9.540 C14.272,10.624 16.000,12.497 16.000,13.839 C16.000,14.856 15.033,15.461 13.336,15.744 ZM8.000,10.666 C5.785,10.666 4.000,7.727 4.000,4.706 C4.000,1.893 5.670,0.000 8.000,0.000 C10.330,0.000 12.000,1.893 12.000,4.706 C12.000,7.727 10.214,10.666 8.000,10.666 Z" />
                </svg>
