<svg xmlns="http://www.w3.org/2000/svg" xmlns:xlink="http://www.w3.org/1999/xlink" width="0.222in"
                    height="0.208in">
                    <path fill-rule="evenodd" fill="rgb(255, 255, 255)" d="M14.000,6.999 C14.000,6.999 13.531,7.999 13.000,7.999 C12.469,7.999 4.500,7.999 4.500,7.999 C4.224,7.999 4.000,8.223 4.000,8.500 C4.000,8.775 4.224,8.999 4.500,8.999 L12.000,8.999 C12.552,8.999 13.000,9.447 13.000,10.000 C13.000,10.552 12.552,10.999 12.000,10.999 L3.000,10.999 C2.448,10.999 2.000,10.552 2.000,10.000 L2.000,3.414 C2.000,3.414 0.937,2.351 -0.000,1.414 C-0.000,0.445 0.477,-0.000 1.414,-0.000 C2.289,0.875 3.414,1.999 3.414,1.999 L15.000,1.999 C15.552,1.999 16.000,2.447 16.000,2.999 L14.000,6.999 ZM3.500,11.999 C4.328,11.999 5.000,12.671 5.000,13.500 C5.000,14.328 4.328,15.000 3.500,15.000 C2.672,15.000 2.000,14.328 2.000,13.500 C2.000,12.671 2.672,11.999 3.500,11.999 ZM11.500,11.999 C12.328,11.999 13.000,12.671 13.000,13.500 C13.000,14.328 12.328,15.000 11.500,15.000 C10.672,15.000 10.000,14.328 10.000,13.500 C10.000,12.671 10.672,11.999 11.500,11.999 Z" />
                </svg>